<svg width="1200" height="1200" viewBox="0 0 1200 1200" xmlns="http://www.w3.org/2000/svg">
  <!-- QR Code Pattern (simplified) -->
  <g fill="#dc2626">
    <!-- Corner markers -->
    <rect x="200" y="200" width="200" height="200" rx="20"/>
    <rect x="800" y="200" width="200" height="200" rx="20"/>
    <rect x="200" y="800" width="200" height="200" rx="20"/>

    <!-- Inner corner squares -->
    <rect x="250" y="250" width="100" height="100" fill="none"/>
    <rect x="850" y="250" width="100" height="100" fill="none"/>
    <rect x="250" y="850" width="100" height="100" fill="none"/>

    <!-- QR pattern blocks -->
    <rect x="500" y="200" width="80" height="80" rx="10"/>
    <rect x="620" y="200" width="80" height="80" rx="10"/>
    <rect x="500" y="320" width="80" height="80" rx="10"/>
    <rect x="620" y="320" width="80" height="80" rx="10"/>

    <rect x="200" y="500" width="80" height="80" rx="10"/>
    <rect x="320" y="500" width="80" height="80" rx="10"/>
    <rect x="200" y="620" width="80" height="80" rx="10"/>
    <rect x="320" y="620" width="80" height="80" rx="10"/>

    <rect x="800" y="500" width="80" height="80" rx="10"/>
    <rect x="920" y="500" width="80" height="80" rx="10"/>
    <rect x="800" y="620" width="80" height="80" rx="10"/>
    <rect x="920" y="620" width="80" height="80" rx="10"/>

    <rect x="500" y="800" width="80" height="80" rx="10"/>
    <rect x="620" y="800" width="80" height="80" rx="10"/>
    <rect x="500" y="920" width="80" height="80" rx="10"/>
    <rect x="620" y="920" width="80" height="80" rx="10"/>

    <!-- Center pattern -->
    <circle cx="600" cy="600" r="120" fill="#dc2626"/>
    <circle cx="600" cy="600" r="80" fill="none"/>
    <circle cx="600" cy="600" r="40" fill="#dc2626"/>
  </g>

  <!-- Menu icon overlay -->
  <g transform="translate(530, 530)">
    <rect x="0" y="10" width="140" height="20" rx="10" fill="#dc2626"/>
    <rect x="0" y="50" width="140" height="20" rx="10" fill="#dc2626"/>
    <rect x="0" y="90" width="140" height="20" rx="10" fill="#dc2626"/>
  </g>
</svg>
