<svg width="1200" height="630" viewBox="0 0 1200 630" xmlns="http://www.w3.org/2000/svg">
  <!-- Background gradient -->
  <defs>
    <linearGradient id="bg" x1="0%" y1="0%" x2="100%" y2="100%">
      <stop offset="0%" style="stop-color:#1e40af;stop-opacity:1" />
      <stop offset="100%" style="stop-color:#3b82f6;stop-opacity:1" />
    </linearGradient>
  </defs>

  <rect width="1200" height="630" fill="url(#bg)"/>

  <!-- Phone mockup -->
  <g transform="translate(100, 80)">
    <!-- Phone frame -->
    <rect x="0" y="0" width="320" height="520" rx="30" fill="#1f2937" stroke="white" stroke-width="4"/>
    <rect x="15" y="15" width="290" height="490" rx="20" fill="white"/>

    <!-- Status bar -->
    <rect x="15" y="15" width="290" height="30" rx="20" fill="#f3f4f6"/>

    <!-- Menu header -->
    <rect x="30" y="60" width="260" height="50" rx="10" fill="#2563eb"/>
    <text x="160" y="92" font-family="Arial, sans-serif" font-size="20" fill="white" text-anchor="middle" font-weight="bold">SobogdQR Menu</text>

    <!-- Menu items -->
    <g transform="translate(30, 130)">
      <!-- Item 1 -->
      <rect x="0" y="0" width="260" height="70" rx="8" fill="#f3f4f6"/>
      <rect x="10" y="10" width="50" height="50" rx="5" fill="#e5e7eb"/>
      <rect x="70" y="15" width="120" height="12" rx="6" fill="#9ca3af"/>
      <rect x="70" y="35" width="80" height="10" rx="5" fill="#d1d5db"/>

      <!-- Item 2 -->
      <rect x="0" y="85" width="260" height="70" rx="8" fill="#f3f4f6"/>
      <rect x="10" y="95" width="50" height="50" rx="5" fill="#e5e7eb"/>
      <rect x="70" y="100" width="140" height="12" rx="6" fill="#9ca3af"/>
      <rect x="70" y="120" width="100" height="10" rx="5" fill="#d1d5db"/>

      <!-- Item 3 -->
      <rect x="0" y="170" width="260" height="70" rx="8" fill="#f3f4f6"/>
      <rect x="10" y="180" width="50" height="50" rx="5" fill="#e5e7eb"/>
      <rect x="70" y="185" width="110" height="12" rx="6" fill="#9ca3af"/>
      <rect x="70" y="205" width="90" height="10" rx="5" fill="#d1d5db"/>
    </g>

    <!-- QR code icon in bottom -->
    <g transform="translate(120, 430)">
      <rect x="0" y="0" width="80" height="80" rx="8" fill="#2563eb"/>
      <rect x="10" y="10" width="20" height="20" rx="3" fill="white"/>
      <rect x="50" y="10" width="20" height="20" rx="3" fill="white"/>
      <rect x="10" y="50" width="20" height="20" rx="3" fill="white"/>
      <circle cx="50" cy="50" r="8" fill="white"/>
    </g>
  </g>

  <!-- Text content -->
  <g transform="translate(500, 150)">
    <text x="0" y="0" font-family="Arial, sans-serif" font-size="60" fill="white" font-weight="bold">SobogdQR</text>
    <text x="0" y="70" font-family="Arial, sans-serif" font-size="32" fill="#e0e7ff">Digital QR Menu</text>
    <text x="0" y="120" font-family="Arial, sans-serif" font-size="28" fill="#bfdbfe">for Restaurants</text>

    <!-- Features -->
    <g transform="translate(0, 180)">
      <!-- Feature 1 -->
      <circle cx="0" cy="0" r="8" fill="#34d399"/>
      <text x="25" y="8" font-family="Arial, sans-serif" font-size="22" fill="white">Multilingual Support</text>

      <!-- Feature 2 -->
      <circle cx="0" cy="50" r="8" fill="#34d399"/>
      <text x="25" y="58" font-family="Arial, sans-serif" font-size="22" fill="white">Instant Updates</text>

      <!-- Feature 3 -->
      <circle cx="0" cy="100" r="8" fill="#34d399"/>
      <text x="25" y="108" font-family="Arial, sans-serif" font-size="22" fill="white">Analytics Dashboard</text>
    </g>
  </g>

  <!-- Decorative elements -->
  <circle cx="1050" cy="500" r="80" fill="#3b82f6" opacity="0.3"/>
  <circle cx="1100" cy="100" r="60" fill="#60a5fa" opacity="0.3"/>
</svg>
